<svg data-v-423bf9ae="" xmlns="http://www.w3.org/2000/svg" viewBox="0 0 446 90" class="iconLeft"><!----><!----><!----><g data-v-423bf9ae="" id="bab38235-61b6-4984-a206-cac3300b45aa" fill="white" transform="matrix(5.464481102134876,0,0,5.464481102134876,113.5516198592768,-10.081970999961356)"><path d="M9.60 15.40L6.59 9.84L9.18 4.73L6.05 4.73L4.38 8.72L3.57 8.72L3.57 4.73L0.77 4.73L0.77 15.40L3.57 15.40L3.57 11.19L4.38 11.19L6.31 15.40ZM14.70 15.40L17.09 15.40L17.09 9.77C17.09 7.42 15.74 6.68 13.78 6.68C11.52 6.68 10.30 7.48 10.30 9.80L12.75 9.80C12.75 9.09 13.02 8.78 13.65 8.78C14.20 8.78 14.50 9.07 14.50 9.81L14.50 10.47C14.14 10.44 13.82 10.42 13.48 10.42C11.06 10.42 10.07 11.31 10.07 13.09C10.07 14.64 11.13 15.57 12.60 15.57C13.52 15.57 14.18 15.27 14.56 14.76ZM14.50 12.54C14.50 13.20 14.03 13.52 13.52 13.52C13.02 13.52 12.74 13.30 12.74 12.80C12.74 12.28 13.03 12.01 13.78 12.01C13.96 12.01 14.32 12.03 14.50 12.05ZM22.02 13.10C21.35 13.10 21.14 12.82 21.14 12.00L21.14 9.77L22.54 9.77L22.54 7.41L21.14 7.41L21.14 5.47L18.35 5.47L18.35 11.90C18.35 14.36 19.07 15.57 21.34 15.57C21.84 15.57 22.34 15.51 22.53 15.47L22.53 13.06C22.40 13.09 22.19 13.10 22.02 13.10ZM26.59 4.59L23.87 4.59L23.87 15.40L26.59 15.40L26.59 10.11C26.59 9.32 26.87 9.06 27.41 9.06C27.99 9.06 28.22 9.34 28.22 10.08L28.22 15.40L30.94 15.40L30.94 9.77C30.94 7.62 30.04 6.68 28.41 6.68C27.64 6.68 27.03 6.85 26.59 7.22ZM32.28 12.47C32.28 14.63 33.15 15.57 34.79 15.57C35.69 15.57 36.34 15.33 36.81 14.80L36.95 15.40L39.30 15.40L39.30 6.85L36.58 6.85L36.58 12.14C36.58 12.92 36.33 13.19 35.78 13.19C35.21 13.19 35 12.91 35 12.17L35 6.85L32.28 6.85ZM44.42 13.09C44.38 13.10 44.28 13.10 44.23 13.10C43.68 13.10 43.41 12.82 43.41 12.00L43.41 4.59L40.70 4.59L40.70 11.90C40.70 14.36 41.36 15.57 43.62 15.57C43.88 15.57 44.13 15.55 44.42 15.53ZM48.02 4.59L45.30 4.59L45.30 15.40L48.02 15.40L48.02 10.11C48.02 9.32 48.30 9.06 48.85 9.06C49.42 9.06 49.66 9.34 49.66 10.08L49.66 15.40L52.37 15.40L52.37 9.77C52.37 7.62 51.48 6.68 49.84 6.68C49.07 6.68 48.47 6.85 48.02 7.22ZM53.72 12.47C53.72 14.63 54.59 15.57 56.22 15.57C57.12 15.57 57.78 15.33 58.24 14.80L58.38 15.40L60.73 15.40L60.73 6.85L58.02 6.85L58.02 12.14C58.02 12.92 57.76 13.19 57.22 13.19C56.64 13.19 56.43 12.91 56.43 12.17L56.43 6.85L53.72 6.85Z"></path></g><!----><g data-v-423bf9ae="" id="089de4d9-3a71-415e-9c16-a7119f4f6be0" transform="matrix(1.2190497606487611,0,0,1.2190497606487611,-10.938263251657837,-14.703073870927923)" stroke="none" fill="white"><path d="M55.894 49.046v1.992c0 2.509 1.142 3.675 3.328 3.675h2.757c2.606 0 4.379 2.119 4.379 4.375v2.318c0 2.509-1.137 4.021-3.795 4.021h-3.196c-2.796 0-4.253-1.278-4.253-3.889V59.38c0-2.059-1.479-3.41-3.281-3.41h-4.759c-2.38 0-2.959 1.608-2.959 3.41v4.249c0 2.252 1.351 3.024 3.088 3.024h2.931c3.31 0 4.9 1.452 4.9 3.77v1.601c0 2.634 1.498 3.632 3.881 3.632h4.915c2.433 0 3.622-1.284 3.622-3.479v-1.796c0-3.023 1.676-3.988 4.893-3.988h3.384c1.866 0 2.725-1.158 2.725-2.702v-6.24c0-2.058-1.158-3.023-3.409-3.023h-4.054c-2.419 0-4.588-1.829-4.588-5.21v-1.992c0-2.509-1.142-3.675-3.329-3.675h-2.757c-2.606 0-4.379-2.118-4.379-4.374v-2.318c0-2.509 1.138-4.021 3.796-4.021h3.195c2.796 0 4.254 1.278 4.254 3.889v2.158c0 2.059 1.479 3.409 3.281 3.409h4.758c2.38 0 2.959-1.608 2.959-3.409v-4.249c0-2.251-1.351-3.023-3.088-3.023h-2.931c-3.31 0-4.9-1.452-4.9-3.77v-1.516c0-2.633-1.425-3.717-3.808-3.717h-4.988c-2.433 0-3.622 1.284-3.622 3.48v1.795c0 3.023-1.676 3.988-4.893 3.988h-3.385c-1.865 0-2.724 1.158-2.724 2.702v6.24c0 2.059 1.157 3.024 3.41 3.024h4.052c2.421-.003 4.59 1.826 4.59 5.207zM86.07 54.482a3.521 3.521 0 0 0 3.521-3.521v-2.688a3.521 3.521 0 0 0-3.521-3.522h-2.688a3.522 3.522 0 0 0-3.521 3.522v2.688a3.521 3.521 0 0 0 3.521 3.521h2.688z"></path><path d="M36.547 31.871h3.008c2.251 0 3.409-.965 3.409-3.023v-1.974c.113-3.194 2.224-4.658 4.578-4.658h3.008c2.253 0 3.41-.965 3.41-3.023v-4.151c0-1.544-.858-2.702-2.724-2.702h-5.695c-1.846 0-2.631.855-2.631 2.782v2.434c0 2.195-1.681 4.253-4.171 4.364h-4.194c-1.845 0-2.631.855-2.631 2.782v2.508c0 2.256-1.771 4.375-4.379 4.375h-2.757c-2.188 0-3.329 1.165-3.329 3.674v3.071c0 3.381-2.168 5.21-4.588 5.21h-4.054c-2.251 0-3.409.965-3.409 3.023v6.766c0 2.059 1.158 3.023 3.409 3.023h4.054c2.42 0 4.588 1.049 4.588 4.431v2.412c0 2.509 1.142 3.674 3.329 3.674h2.757c2.607 0 4.379 2.119 4.379 4.375v2.539c0 1.927.786 2.782 2.631 2.782h4.213l-.021.024c2.491.11 4.171 2.169 4.171 4.364v2.433c0 1.927.785 2.782 2.631 2.782h5.694c1.866 0 2.725-1.158 2.725-2.702v-4.151c0-2.059-1.158-3.024-3.409-3.024H47.54c-2.348 0-4.453-1.457-4.576-4.633v-2.053c0-2.059-1.158-3.023-3.409-3.023h-3.008c-2.421 0-4.59-1.828-4.59-5.209V59.74c0-2.509 1.143-3.674 3.33-3.674h2.756c2.607 0 4.38-2.119 4.38-4.375V48.2c0-2.256-1.772-4.375-4.38-4.375h-2.756c-2.188 0-3.33-1.166-3.33-3.674v-3.36c0-3.38 2.169-4.92 4.59-4.92z"></path></g><!----></svg>